{"title":"Piranha(2010)Unrated Bluray Rip In[Hindi-Eng]6CH.AC3 By !!!dip","uid":6607740,"size":1979781239,"categoryP":"video","categoryS":"hd___movies","magnet":"?xt=urn:btih:0154106ae244524376115df5b7b60c5c8f1d5e90&amp;dn=Piranha%282010%29Unrated+Bluray+Rip+In%5BHindi-Eng%5D6CH.AC3+By+%21%21%21dip&amp;tr=udp%3A%2F%2Ftracker.openbittorrent.com%3A80&amp;tr=udp%3A%2F%2Fopen.demonii.com%3A1337&amp;tr=udp%3A%2F%2Ftracker.coppersurfer.tk%3A6969&amp;tr=udp%3A%2F%2Fexodus.desync.com%3A6969","seeders":0,"leechers":1,"uploader":"dipty","files":-1,"time":1313473345,"description":"                        =!DK GROUP HD BLURAY RELEAESEES!=\n\n===================================================================================\n\n          Piranha(2010)Unrated Bluray Rip In[Hindi-Eng]6CH.AC3 By !!!dip\n\n===================================================================================\n\nStoryline:\n\nLake Victoria's annual Spring party by 50,000 young revelers is about to turn into a feeding frenzy with prehistoric hunger-pains. With knee-trembler's above the waves and tremors below, released from their dormant sleep, thousands upon thousands of flesh-eating nippers are released into the lake with whetted appetites and razor-sharp teeth. With a motley crew of strangers thrown together to defend these shores, it is now up to them to prevent the largest eat-out in human, and piranha, history. Written by Cinema_Fan \n\nCast:\n\nRichard Dreyfuss..................Matt Boyd\nVing Rhames.......................Deputy Fallon\nElisabeth Shue....................Sheriff Julie Forester\nChristopher Lloyd.................Mr. Goodman\nEli Roth..........................Wet T-Shirt Host\nJerry O'Connell...................Derrick Jones\nSteven R. McQueen.................Jake Forester\nJessica Szohr.....................Kelly\nKelly Brook.......................Danni\nRiley Steele......................Crystal\nAdam Scott........................Novak Radzinsky\nRicardo Chavira...................Sam\nDina Meyer........................Paula Montellano\nPaul Scheer.......................Andrew 'Drew' Cunningham\nBrooklynn Proulx..................Laura Forester  \n\n\n \nDirectors :Alexandre Aja\nWriters :Pete Goldfinger, Josh Stolberg\nStars:Elisabeth Shue, Jerry O'Connell and Richard Dreyfuss\nFormat : Color, Dubbed,Widescreen\nLanguage :[Hindi-Eng]6CH.AC3\nRelease Date :3 September 2010 (India) \nRun Time : 1h:24m:48s\nColor :Color\nSUBTITLE:NO\n\n\nVideo Specifications:\n\nRelease Title/Year/Language...:Piranha(2010)Unrated Bluray Rip In [Hindi-Eng]6CH.AC3 By !!!dip\nGenre.........................:Adult | Horror    \nSource........................:BLURAY\n\nID                               : 1\nFormat                           : AVC\nFormat/Info                      : Advanced Video Codec\nFormat profile                   : &lt;a class=&quot;__cf_email__&quot; href=&quot;/cdn-cgi/l/email-protection&quot; data-cfemail=&quot;d49cbdb3bc9498e0fae5&quot;&gt;[email&amp;#160;protected]&lt;/a&gt;&lt;script cf-hash='f9e31' type=&quot;text/javascript&quot;&gt;\n/* &lt;![CDATA[ */!function(){try{var t=&quot;currentScript&quot;in document?document.currentScript:function(){for(var t=document.getElementsByTagName(&quot;script&quot;),e=t.length;e--;)if(t[e].getAttribute(&quot;cf-hash&quot;))return t[e]}();if(t&amp;&amp;t.previousSibling){var e,r,n,i,c=t.previousSibling,a=c.getAttribute(&quot;data-cfemail&quot;);if(a){for(e=&quot;&quot;,r=parseInt(a.substr(0,2),16),n=2;a.length-n;n+=2)i=parseInt(a.substr(n,2),16)^r,e+=String.fromCharCode(i);e=document.createTextNode(e),c.parentNode.replaceChild(e,c)}}}catch(u){}}();/* ]]&gt; */&lt;/script&gt;\nFormat settings, CABAC           : Yes\nFormat settings, ReFrames        : 8 frames\nMuxing mode                      : Header stripping\nCodec ID                         : V_MPEG4/ISO/AVC\nDuration                         : 1h 24mn\nNominal bit rate                 : 2 044 Kbps\nWidth                            : 1 280 pixels\nHeight                           : 536 pixels\nDisplay aspect ratio             : 2.35:1\nFrame rate                       : 25.000 fps\nOriginal frame rate              : 23.976 fps\nColor space                      : YUV\nChroma subsampling               : 4:2:0\nBit depth                        : 8 bits\nScan type                        : Progressive\nBits/(Pixel*Frame)               : 0.119\nTeam                             : DK Group HD Bluray Releases\n\n\nAudio Specifications:\n\n\nAudio #1\nID                               : 2\nFormat                           : AAC\nFormat/Info                      : Advanced Audio Codec\nFormat profile                   : LC\nCodec ID                         : A_AAC\nDuration                         : 1h 24mn\nChannel(s)                       : 6 channels\nChannel positions                : Front: L C R, Side: L R, LFE\nSampling rate                    : 48.0 KHz\nCompression mode                 : Lossy\nTitle                            : !!!dip\nLanguage                         : English\n\nAudio #2\nID                               : 3\nFormat                           : AC-3\nFormat/Info                      : Audio Coding 3\nMode extension                   : CM (complete main)\nMuxing mode                      : Header stripping\nCodec ID                         : A_AC3\nDuration                         : 1h 24mn\nBit rate mode                    : Constant\nBit rate                         : 448 Kbps\nChannel(s)                       : 6 channels\nChannel positions                : Front: L C R, Side: L R, LFE\nSampling rate                    : 48.0 KHz\nBit depth                        : 16 bits\nCompression mode                 : Lossy\nDelay relative to video          : 12ms\nStream size                      : 272 MiB (15%)\nTitle                            : !!!dip\nLanguage                         : Hindi\n\nAudio #3\nID                               : 4\nFormat                           : AC-3\nFormat/Info                      : Audio Coding 3\nMode extension                   : CM (complete main)\nMuxing mode                      : Header stripping\nCodec ID                         : A_AC3\nDuration                         : 1h 24mn\nBit rate mode                    : Constant\nBit rate                         : 192 Kbps\nChannel(s)                       : 2 channels\nChannel positions                : Front: L R\nSampling rate                    : 48.0 KHz\nBit depth                        : 16 bits\nCompression mode                 : Lossy\nDelay relative to video          : 12ms\nStream size                      : 116 MiB (6%)\nTitle                            : !!!dip\nLanguage                         : Hindi\n\nSAMPLE IMAGE:\n &lt;a href=&quot;\nhttp://www.pix2links.com/images/79425013922553397763.jpg&quot; rel=&quot;nofollow&quot; target=&quot;_NEW&quot;&gt;\nhttp://www.pix2links.com/images/79425013922553397763.jpg&lt;/a&gt;\n &lt;a href=&quot;\nhttp://www.pix2links.com/images/11509941118517722910.jpg&quot; rel=&quot;nofollow&quot; target=&quot;_NEW&quot;&gt;\nhttp://www.pix2links.com/images/11509941118517722910.jpg&lt;/a&gt;\n &lt;a href=&quot;\nhttp://www.pix2links.com/images/20182192405480881451.jpg&quot; rel=&quot;nofollow&quot; target=&quot;_NEW&quot;&gt;\nhttp://www.pix2links.com/images/20182192405480881451.jpg&lt;/a&gt;\n &lt;a href=&quot;\nhttp://www.pix2links.com/images/25291689202450454923.jpg&quot; rel=&quot;nofollow&quot; target=&quot;_NEW&quot;&gt;\nhttp://www.pix2links.com/images/25291689202450454923.jpg&lt;/a&gt;\n &lt;a href=&quot;\nhttp://www.pix2links.com/images/70438017732528940927.jpg&quot; rel=&quot;nofollow&quot; target=&quot;_NEW&quot;&gt;\nhttp://www.pix2links.com/images/70438017732528940927.jpg&lt;/a&gt;\n &lt;a href=&quot;\nhttp://www.pix2links.com/images/53761694589177904865.jpg&quot; rel=&quot;nofollow&quot; target=&quot;_NEW&quot;&gt;\nhttp://www.pix2links.com/images/53761694589177904865.jpg&lt;/a&gt;\n\n\nVIDEO SAMPLE INCLUDED:\n\n","torrent":{"xt":"urn:btih:0154106ae244524376115df5b7b60c5c8f1d5e90","amp;dn":"Piranha%282010%29Unrated+Bluray+Rip+In%5BHindi-Eng%5D6CH.AC3+By+%21%21%21dip","amp;tr":["udp%3A%2F%2Ftracker.openbittorrent.com%3A80","udp%3A%2F%2Fopen.demonii.com%3A1337","udp%3A%2F%2Ftracker.coppersurfer.tk%3A6969","udp%3A%2F%2Fexodus.desync.com%3A6969"],"infoHash":"0154106ae244524376115df5b7b60c5c8f1d5e90","infoHashBuffer":{"type":"Buffer","data":[1,84,16,106,226,68,82,67,118,17,93,245,183,182,12,92,143,29,94,144]},"announce":[],"urlList":[]}}